<svg
              xmlns="http://www.w3.org/2000/svg"
              width="20"
              height="20"
              viewBox="0 0 24 24"
              className="sm:w-6 sm:h-6"
            >
              <path
                fill="#4285F4"
                d="M23.49 12.27c0-.82-.07-1.62-.21-2.39H12v4.53h6.39c-.28 1.44-1.12 2.67-2.39 3.5v2.92h3.85c2.26-2.08 3.55-5.16 3.55-8.56z"
              />
              <path
                fill="#34A853"
                d="M12 24c3.24 0 5.95-1.07 7.93-2.91l-3.85-2.92c-1.07.72-2.44 1.15-4.08 1.15-3.14 0-5.8-2.12-6.75-4.96H1.29v3.1C3.27 21.52 7.34 24 12 24z"
              />
              <path
                fill="#FBBC05"
                d="M5.17 14.36c-.25-.72-.39-1.48-.39-2.36s.14-1.64.39-2.36V6.54H1.29C.46 8.03 0 9.94 0 12s.46 3.97 1.29 5.46l3.88-3.1z"
              />
              <path
                fill="#EA4335"
                d="M12 4.84c1.76 0 3.32.61 4.56 1.8l3.42-3.42C17.95 1.74 15.24.68 12 .68 7.34.68 3.27 3.16 1.29 6.54l3.88 3.1C6.2 6.96 8.86 4.84 12 4.84z"
              />
</svg>